<?xml version="1.0" standalone="no"?>
<!DOCTYPE svg PUBLIC "-//W3C//DTD SVG 20010904//EN"
 "http://www.w3.org/TR/2001/REC-SVG-20010904/DTD/svg10.dtd">
<svg version="1.0" xmlns="http://www.w3.org/2000/svg"
 width="512.000000pt" height="512.000000pt" viewBox="0 0 512.000000 512.000000"
 preserveAspectRatio="xMidYMid meet">
<metadata>
Created by potrace 1.14, written by Peter Selinger 2001-2017
</metadata>
<g transform="translate(0.000000,512.000000) scale(0.100000,-0.100000)"
fill="#000000" stroke="none">
<path d="M1439 5116 c-2 -2 -29 -7 -59 -10 -123 -12 -256 -47 -400 -104 -517
-206 -895 -700 -968 -1262 -9 -71 -9 -2275 0 -2356 4 -33 9 -71 12 -85 16 -76
50 -207 58 -229 6 -14 14 -34 18 -45 56 -145 94 -217 184 -350 67 -98 246
-285 341 -357 220 -163 487 -272 753 -306 77 -10 2303 -9 2371 1 66 9 72 10
184 37 273 64 558 231 751 439 17 18 41 44 52 56 109 118 231 328 290 497 34
96 73 256 82 330 9 84 9 2285 -1 2368 -24 209 -98 423 -213 615 -232 389 -629
663 -1074 740 -19 4 -48 9 -65 13 -33 7 -2309 15 -2316 8z"/>
</g>
</svg>
